<svg width="14" height="24" viewBox="0 0 14 24" fill="none" xmlns="http://www.w3.org/2000/svg">
<path fill-rule="evenodd" clip-rule="evenodd" d="M0.438847 23.6494C0.924847 24.1174 1.71085 24.1174 2.19565 23.6494L12.4712 13.7326C12.7013 13.514 12.8844 13.2509 13.0096 12.9593C13.1347 12.6677 13.1993 12.3537 13.1993 12.0364C13.1993 11.719 13.1347 11.405 13.0096 11.1134C12.8844 10.8218 12.7013 10.5588 12.4712 10.3402L2.12125 0.350156C1.88635 0.126893 1.57528 0.00140449 1.25122 -0.00082429C0.927155 -0.00305307 0.614392 0.118145 0.376447 0.338156C0.258573 0.446804 0.164258 0.578494 0.0993436 0.725071C0.0344287 0.871648 0.000295763 1.02999 -0.000941666 1.19029C-0.0021791 1.3506 0.0295054 1.50945 0.0921497 1.65701C0.154794 1.80457 0.247064 1.9377 0.363247 2.04816L9.83605 11.1886C9.95115 11.2979 10.0428 11.4294 10.1054 11.5753C10.1681 11.7212 10.2004 11.8782 10.2004 12.037C10.2004 12.1957 10.1681 12.3528 10.1054 12.4986C10.0428 12.6445 9.95115 12.7761 9.83605 12.8854L0.438847 21.9538C0.323779 22.063 0.232145 22.1944 0.169526 22.3402C0.106907 22.4859 0.0746142 22.6429 0.0746142 22.8016C0.0746142 22.9602 0.106907 23.1172 0.169526 23.2629C0.232145 23.4087 0.323779 23.5402 0.438847 23.6494Z" fill="black"/>
</svg>
