<svg width="40" height="36" viewBox="0 0 40 36" fill="none" xmlns="http://www.w3.org/2000/svg">
<path d="M40 9.30208V31.6146C40 33.6676 38.3203 35.3333 36.25 35.3333H3.75C1.67969 35.3333 0 33.6676 0 31.6146V9.30208C0 7.24902 1.67969 5.58333 3.75 5.58333H10.625L11.5859 3.03444C12.1328 1.58568 13.5312 0.625 15.0938 0.625H24.8984C26.4609 0.625 27.8594 1.58568 28.4062 3.03444L29.375 5.58333H36.25C38.3203 5.58333 40 7.24902 40 9.30208ZM29.375 20.4583C29.375 15.3296 25.1719 11.1615 20 11.1615C14.8281 11.1615 10.625 15.3296 10.625 20.4583C10.625 25.5871 14.8281 29.7552 20 29.7552C25.1719 29.7552 29.375 25.5871 29.375 20.4583ZM26.875 20.4583C26.875 24.2158 23.7891 27.276 20 27.276C16.2109 27.276 13.125 24.2158 13.125 20.4583C13.125 16.7008 16.2109 13.6406 20 13.6406C23.7891 13.6406 26.875 16.7008 26.875 20.4583Z" fill="black"/>
</svg>
