<svg width="30" height="25" viewBox="0 0 30 25" fill="none" xmlns="http://www.w3.org/2000/svg">
<path d="M14.6024 6.88854L4.9998 14.7974V23.3333C4.9998 23.5543 5.0876 23.7663 5.24388 23.9226C5.40016 24.0789 5.61212 24.1667 5.83314 24.1667L11.6696 24.1516C11.8899 24.1505 12.1008 24.0622 12.2562 23.906C12.4115 23.7499 12.4988 23.5385 12.4988 23.3182V18.3333C12.4988 18.1123 12.5866 17.9004 12.7428 17.7441C12.8991 17.5878 13.1111 17.5 13.3321 17.5H16.6654C16.8864 17.5 17.0984 17.5878 17.2547 17.7441C17.411 17.9004 17.4988 18.1123 17.4988 18.3333V23.3146C17.4984 23.4242 17.5197 23.5329 17.5614 23.6343C17.6032 23.7357 17.6645 23.8279 17.7419 23.9055C17.8193 23.9832 17.9113 24.0448 18.0126 24.0868C18.1139 24.1289 18.2224 24.1505 18.3321 24.1505L24.1665 24.1667C24.3875 24.1667 24.5994 24.0789 24.7557 23.9226C24.912 23.7663 24.9998 23.5543 24.9998 23.3333V14.7917L15.3993 6.88854C15.2864 6.79756 15.1458 6.74795 15.0008 6.74795C14.8559 6.74795 14.7153 6.79756 14.6024 6.88854ZM29.7706 12.2641L25.4165 8.675V1.46094C25.4165 1.29518 25.3506 1.13621 25.2334 1.019C25.1162 0.901786 24.9572 0.835938 24.7915 0.835938H21.8748C21.709 0.835938 21.5501 0.901786 21.4329 1.019C21.3157 1.13621 21.2498 1.29518 21.2498 1.46094V5.24271L16.5868 1.40625C16.1393 1.03801 15.5778 0.836674 14.9982 0.836674C14.4187 0.836674 13.8572 1.03801 13.4097 1.40625L0.225846 12.2641C0.162558 12.3164 0.110197 12.3806 0.0717557 12.4532C0.033314 12.5257 0.00954467 12.6052 0.00180581 12.6869C-0.00593305 12.7686 0.00251024 12.8511 0.0266532 12.9296C0.0507962 13.0081 0.0901658 13.081 0.142512 13.1443L1.47064 14.7589C1.52284 14.8223 1.58705 14.8749 1.65959 14.9135C1.73214 14.9521 1.81159 14.9761 1.89339 14.984C1.9752 14.9919 2.05776 14.9835 2.13635 14.9595C2.21493 14.9354 2.288 14.8961 2.35137 14.8438L14.6024 4.75313C14.7153 4.66215 14.8559 4.61254 15.0008 4.61254C15.1458 4.61254 15.2864 4.66215 15.3993 4.75313L27.6508 14.8438C27.7141 14.8961 27.7871 14.9355 27.8655 14.9596C27.944 14.9838 28.0265 14.9922 28.1082 14.9845C28.19 14.9767 28.2694 14.9529 28.3419 14.9145C28.4145 14.8761 28.4787 14.8237 28.5311 14.7604L29.8592 13.1458C29.9115 13.0822 29.9507 13.0089 29.9745 12.9301C29.9984 12.8512 30.0064 12.7685 29.9982 12.6865C29.99 12.6046 29.9656 12.5251 29.9266 12.4526C29.8875 12.3801 29.8345 12.316 29.7706 12.2641Z" fill="black"/>
</svg>
