<svg width="20" height="20" viewBox="0 0 20 20" fill="none" xmlns="http://www.w3.org/2000/svg">
<path d="M19.4493 5.55078L17.6485 7.35156C17.4649 7.53516 17.168 7.53516 16.9844 7.35156L12.6485 3.01562C12.4649 2.83203 12.4649 2.53516 12.6485 2.35156L14.4493 0.550781C15.1797 -0.179688 16.3672 -0.179688 17.1016 0.550781L19.4493 2.89844C20.1836 3.62891 20.1836 4.81641 19.4493 5.55078ZM11.1016 3.89844L0.843801 14.1562L0.015676 18.9023C-0.0976053 19.543 0.460989 20.0977 1.10161 19.9883L5.84771 19.1562L16.1055 8.89844C16.2891 8.71484 16.2891 8.41797 16.1055 8.23438L11.7696 3.89844C11.5821 3.71484 11.2852 3.71484 11.1016 3.89844ZM4.84771 13.2773C4.63286 13.0625 4.63286 12.7188 4.84771 12.5039L10.8633 6.48828C11.0782 6.27344 11.4219 6.27344 11.6368 6.48828C11.8516 6.70313 11.8516 7.04688 11.6368 7.26172L5.62114 13.2773C5.4063 13.4922 5.06255 13.4922 4.84771 13.2773ZM3.43755 16.5625H5.31255V17.9805L2.79302 18.4219L1.57818 17.207L2.01958 14.6875H3.43755V16.5625Z" fill="white"/>
</svg>
