<svg width="16" height="20" viewBox="0 0 16 20" fill="none" xmlns="http://www.w3.org/2000/svg">
<path d="M15 8C15 13.4444 8 18.1111 8 18.1111C8 18.1111 1 13.4444 1 8C1 6.14349 1.7375 4.36301 3.05025 3.05025C4.36301 1.7375 6.14348 1 8 1C9.85652 1 11.637 1.7375 12.9497 3.05025C14.2625 4.36301 15 6.14349 15 8Z" stroke="#8A8A8A" stroke-width="2" stroke-linecap="round" stroke-linejoin="round"/>
<path d="M8.00033 10.3334C9.28899 10.3334 10.3337 9.28869 10.3337 8.00002C10.3337 6.71136 9.28899 5.66669 8.00033 5.66669C6.71166 5.66669 5.66699 6.71136 5.66699 8.00002C5.66699 9.28869 6.71166 10.3334 8.00033 10.3334Z" stroke="#8A8A8A" stroke-width="2" stroke-linecap="round" stroke-linejoin="round"/>
</svg>
