<svg width="31" height="24" viewBox="0 0 31 24" fill="none" xmlns="http://www.w3.org/2000/svg">
<path d="M15.5 1.70312C13.5624 1.70313 11.6682 2.2777 10.0572 3.3542C8.44606 4.43069 7.19037 5.96075 6.44887 7.7509C5.70737 9.54104 5.51336 11.5109 5.89137 13.4113C6.26939 15.3117 7.20245 17.0573 8.57257 18.4274C9.94269 19.7976 11.6883 20.7306 13.5887 21.1086C15.4891 21.4866 17.459 21.2926 19.2491 20.5511C21.0393 19.8096 22.5693 18.5539 23.6458 16.9429C24.7223 15.3318 25.2969 13.4376 25.2969 11.5C25.294 8.90259 24.2609 6.41238 22.4243 4.57573C20.5876 2.73908 18.0974 1.70599 15.5 1.70312ZM15.5 20.2656C13.7663 20.2656 12.0716 19.7515 10.6301 18.7884C9.18858 17.8252 8.06507 16.4562 7.40162 14.8545C6.73817 13.2528 6.56458 11.4903 6.90281 9.78991C7.24103 8.08955 8.07588 6.52766 9.30177 5.30177C10.5277 4.07587 12.0896 3.24103 13.7899 2.9028C15.4903 2.56458 17.2528 2.73817 18.8545 3.40162C20.4562 4.06507 21.8252 5.18858 22.7884 6.63008C23.7515 8.07158 24.2656 9.76632 24.2656 11.5C24.263 13.824 23.3387 16.0521 21.6954 17.6954C20.0521 19.3387 17.824 20.263 15.5 20.2656Z" fill="black"/>
<path d="M5.70312 5.82812V0.671875H4.67188V5.3125H4.15625V0.671875H3.125V5.3125H2.60938V0.671875H1.57812V5.3125H1.0625V0.671875H0.03125V8.40625C0.0316402 8.72608 0.13096 9.03796 0.315588 9.29911C0.500216 9.56027 0.761113 9.75792 1.0625 9.86495V21.8125C1.0625 22.2228 1.22547 22.6162 1.51557 22.9063C1.80566 23.1964 2.19912 23.3594 2.60938 23.3594H3.125C3.53526 23.3594 3.92871 23.1964 4.21881 22.9063C4.5089 22.6162 4.67188 22.2228 4.67188 21.8125V9.86495C4.97326 9.75792 5.23416 9.56027 5.41879 9.29911C5.60342 9.03796 5.70273 8.72608 5.70312 8.40625V5.82812ZM4.67188 8.40625C4.67188 8.543 4.61755 8.67415 4.52085 8.77085C4.42415 8.86755 4.293 8.92188 4.15625 8.92188C4.0195 8.92188 3.88835 8.9762 3.79165 9.0729C3.69495 9.1696 3.64062 9.30075 3.64062 9.4375V21.8125C3.64062 21.9493 3.5863 22.0804 3.4896 22.1771C3.3929 22.2738 3.26175 22.3281 3.125 22.3281H2.60938C2.47262 22.3281 2.34147 22.2738 2.24477 22.1771C2.14807 22.0804 2.09375 21.9493 2.09375 21.8125V9.4375C2.09375 9.30075 2.03943 9.1696 1.94273 9.0729C1.84603 8.9762 1.71488 8.92188 1.57812 8.92188C1.44137 8.92188 1.31022 8.86755 1.21352 8.77085C1.11682 8.67415 1.0625 8.543 1.0625 8.40625V6.34375H4.67188V8.40625ZM30.4531 0.15625C29.2228 0.157615 28.0432 0.646975 27.1732 1.51697C26.3032 2.38696 25.8139 3.56652 25.8125 4.79688V11.5C25.8125 11.9103 25.9755 12.3037 26.2656 12.5938C26.5557 12.8839 26.9491 13.0469 27.3594 13.0469V22.8438C27.3594 22.9805 27.4137 23.1117 27.5104 23.2084C27.6071 23.305 27.7382 23.3594 27.875 23.3594H30.4531C30.5899 23.3594 30.721 23.305 30.8177 23.2084C30.9144 23.1117 30.9688 22.9805 30.9688 22.8438V0.671875C30.9688 0.535123 30.9144 0.403972 30.8177 0.307273C30.721 0.210575 30.5899 0.15625 30.4531 0.15625ZM29.9375 22.3281H28.3906V12.5312C28.3906 12.3945 28.3363 12.2633 28.2396 12.1666C28.1429 12.0699 28.0118 12.0156 27.875 12.0156H27.3594C27.2226 12.0156 27.0915 11.9613 26.9948 11.8646C26.8981 11.7679 26.8438 11.6368 26.8438 11.5V4.79688C26.8448 3.9292 27.158 3.09086 27.7259 2.43493C28.2939 1.77899 29.0789 1.34923 29.9375 1.22411V22.3281Z" fill="black"/>
<path d="M15.5 6.34375C14.4802 6.34375 13.4833 6.64616 12.6353 7.21274C11.7874 7.77931 11.1265 8.58461 10.7362 9.52679C10.346 10.469 10.2439 11.5057 10.4428 12.5059C10.6418 13.5061 11.1329 14.4249 11.854 15.146C12.5751 15.8671 13.4939 16.3582 14.4941 16.5572C15.4943 16.7561 16.531 16.654 17.4732 16.2638C18.4154 15.8735 19.2207 15.2126 19.7873 14.3647C20.3538 13.5167 20.6563 12.5198 20.6563 11.5C20.6548 10.1329 20.111 8.8223 19.1444 7.85564C18.1777 6.88898 16.8671 6.34525 15.5 6.34375ZM15.5 15.625C14.6842 15.625 13.8866 15.3831 13.2083 14.9298C12.5299 14.4766 12.0012 13.8323 11.689 13.0786C11.3768 12.3248 11.2951 11.4954 11.4543 10.6953C11.6134 9.89508 12.0063 9.16008 12.5832 8.58318C13.1601 8.00629 13.8951 7.61342 14.6953 7.45426C15.4954 7.2951 16.3248 7.37679 17.0786 7.689C17.8323 8.00121 18.4766 8.52992 18.9298 9.20827C19.3831 9.88663 19.625 10.6842 19.625 11.5C19.6238 12.5936 19.1888 13.6421 18.4155 14.4155C17.6421 15.1888 16.5936 15.6238 15.5 15.625Z" fill="black"/>
</svg>
