<svg width="32" height="33" viewBox="0 0 32 33" fill="none" xmlns="http://www.w3.org/2000/svg">
<path d="M16 0.5C7.168 0.5 0 7.668 0 16.5C0 25.332 7.168 32.5 16 32.5C24.832 32.5 32 25.332 32 16.5C32 7.668 24.832 0.5 16 0.5ZM16 5.3C18.656 5.3 20.8 7.444 20.8 10.1C20.8 12.756 18.656 14.9 16 14.9C13.344 14.9 11.2 12.756 11.2 10.1C11.2 7.444 13.344 5.3 16 5.3ZM16 28.02C12 28.02 8.464 25.972 6.4 22.868C6.448 19.684 12.8 17.94 16 17.94C19.184 17.94 25.552 19.684 25.6 22.868C23.536 25.972 20 28.02 16 28.02Z" fill="black"/>
</svg>
