<svg width="28" height="29" viewBox="0 0 28 29" fill="none" xmlns="http://www.w3.org/2000/svg">
<path d="M24.1153 15.8317C24.172 15.4067 24.2003 14.9675 24.2003 14.5C24.2003 14.0467 24.172 13.5933 24.1012 13.1683L26.977 10.93C27.232 10.7317 27.3028 10.3492 27.147 10.0658L24.427 5.36249C24.257 5.05083 23.9028 4.95166 23.5912 5.05083L20.2053 6.41083C19.497 5.87249 18.7462 5.41916 17.9103 5.07916L17.4003 1.48083C17.3437 1.14083 17.0603 0.899994 16.7203 0.899994H11.2803C10.9403 0.899994 10.6712 1.14083 10.6145 1.48083L10.1045 5.07916C9.26865 5.41916 8.50365 5.88666 7.80949 6.41083L4.42365 5.05083C4.11198 4.93749 3.75782 5.05083 3.58782 5.36249L0.881985 10.0658C0.711985 10.3633 0.768651 10.7317 1.05198 10.93L3.92782 13.1683C3.85698 13.5933 3.80032 14.0608 3.80032 14.5C3.80032 14.9392 3.82865 15.4067 3.89948 15.8317L1.02365 18.07C0.768651 18.2683 0.697818 18.6508 0.853652 18.9342L3.57365 23.6375C3.74365 23.9492 4.09782 24.0483 4.40949 23.9492L7.79532 22.5892C8.50365 23.1275 9.25449 23.5808 10.0903 23.9208L10.6003 27.5192C10.6712 27.8592 10.9403 28.1 11.2803 28.1H16.7203C17.0603 28.1 17.3437 27.8592 17.3862 27.5192L17.8962 23.9208C18.732 23.5808 19.497 23.1275 20.1912 22.5892L23.577 23.9492C23.8887 24.0625 24.2428 23.9492 24.4128 23.6375L27.1328 18.9342C27.3028 18.6225 27.232 18.2683 26.9628 18.07L24.1153 15.8317ZM14.0003 19.6C11.1953 19.6 8.90032 17.305 8.90032 14.5C8.90032 11.695 11.1953 9.39999 14.0003 9.39999C16.8053 9.39999 19.1003 11.695 19.1003 14.5C19.1003 17.305 16.8053 19.6 14.0003 19.6Z" fill="black"/>
</svg>
