<svg width="32" height="25" viewBox="0 0 32 25" fill="none" xmlns="http://www.w3.org/2000/svg">
<path d="M20.8 16.5H23.2C23.6 16.5 24 16.1 24 15.7V7.3C24 6.9 23.6 6.5 23.2 6.5H20.8C20.4 6.5 20 6.9 20 7.3V15.7C20 16.1 20.4 16.5 20.8 16.5ZM26.8 16.5H29.2C29.6 16.5 30 16.1 30 15.7V1.3C30 0.9 29.6 0.5 29.2 0.5H26.8C26.4 0.5 26 0.9 26 1.3V15.7C26 16.1 26.4 16.5 26.8 16.5ZM8.8 16.5H11.2C11.6 16.5 12 16.1 12 15.7V11.3C12 10.9 11.6 10.5 11.2 10.5H8.8C8.4 10.5 8 10.9 8 11.3V15.7C8 16.1 8.4 16.5 8.8 16.5ZM14.8 16.5H17.2C17.6 16.5 18 16.1 18 15.7V3.3C18 2.9 17.6 2.5 17.2 2.5H14.8C14.4 2.5 14 2.9 14 3.3V15.7C14 16.1 14.4 16.5 14.8 16.5ZM31 20.5H4V1.5C4 0.9475 3.5525 0.5 3 0.5H1C0.4475 0.5 0 0.9475 0 1.5V22.5C0 23.6044 0.895625 24.5 2 24.5H31C31.5525 24.5 32 24.0525 32 23.5V21.5C32 20.9475 31.5525 20.5 31 20.5Z" fill="black"/>
</svg>
