<svg width="42" height="42" viewBox="0 0 42 42" fill="none" xmlns="http://www.w3.org/2000/svg">
<path d="M14.3105 27.6454L27.6457 14.3102" stroke="black" stroke-width="2" stroke-linecap="round" stroke-linejoin="round"/>
<path d="M15.4218 16.5327C16.0355 16.5327 16.5331 16.0352 16.5331 15.4214C16.5331 14.8077 16.0355 14.3102 15.4218 14.3102C14.8081 14.3102 14.3105 14.8077 14.3105 15.4214C14.3105 16.0352 14.8081 16.5327 15.4218 16.5327Z" fill="black" stroke="black" stroke-width="2" stroke-linecap="round" stroke-linejoin="round"/>
<path d="M26.5341 27.6454C27.1479 27.6454 27.6454 27.1479 27.6454 26.5341C27.6454 25.9204 27.1479 25.4229 26.5341 25.4229C25.9204 25.4229 25.4229 25.9204 25.4229 26.5341C25.4229 27.1479 25.9204 27.6454 26.5341 27.6454Z" fill="black" stroke="black" stroke-width="2" stroke-linecap="round" stroke-linejoin="round"/>
<path d="M5.42004 10.3096C5.42004 9.01282 5.93519 7.76914 6.85217 6.85217C7.76914 5.93519 9.01282 5.42004 10.3096 5.42004H12.5321C13.8232 5.41931 15.0616 4.90798 15.9771 3.99762L17.5328 2.44185C17.9872 1.9849 18.5275 1.62227 19.1225 1.37483C19.7175 1.12738 20.3556 1 21 1C21.6444 1 22.2825 1.12738 22.8775 1.37483C23.4725 1.62227 24.0128 1.9849 24.4671 2.44185L26.0229 3.99762C26.9384 4.90798 28.1768 5.41931 29.4678 5.42004H31.6904C32.9872 5.42004 34.2309 5.93519 35.1478 6.85217C36.0648 7.76914 36.58 9.01282 36.58 10.3096V12.5321C36.5807 13.8232 37.092 15.0616 38.0024 15.9771L39.5581 17.5328C40.0151 17.9872 40.3777 18.5275 40.6252 19.1225C40.8726 19.7175 41 20.3556 41 21C41 21.6444 40.8726 22.2825 40.6252 22.8775C40.3777 23.4725 40.0151 24.0128 39.5581 24.4671L38.0024 26.0229C37.092 26.9384 36.5807 28.1768 36.58 29.4678V31.6904C36.58 32.9872 36.0648 34.2309 35.1478 35.1478C34.2309 36.0648 32.9872 36.58 31.6904 36.58H29.4678C28.1768 36.5807 26.9384 37.092 26.0229 38.0024L24.4671 39.5581C24.0128 40.0151 23.4725 40.3777 22.8775 40.6252C22.2825 40.8726 21.6444 41 21 41C20.3556 41 19.7175 40.8726 19.1225 40.6252C18.5275 40.3777 17.9872 40.0151 17.5328 39.5581L15.9771 38.0024C15.0616 37.092 13.8232 36.5807 12.5321 36.58H10.3096C9.01282 36.58 7.76914 36.0648 6.85217 35.1478C5.93519 34.2309 5.42004 32.9872 5.42004 31.6904V29.4678C5.41931 28.1768 4.90798 26.9384 3.99762 26.0229L2.44185 24.4671C1.9849 24.0128 1.62227 23.4725 1.37483 22.8775C1.12738 22.2825 1 21.6444 1 21C1 20.3556 1.12738 19.7175 1.37483 19.1225C1.62227 18.5275 1.9849 17.9872 2.44185 17.5328L3.99762 15.9771C4.90798 15.0616 5.41931 13.8232 5.42004 12.5321V10.3096" stroke="black" stroke-width="2" stroke-linecap="round" stroke-linejoin="round"/>
</svg>
